<?xml version="1.0" encoding="UTF-8" standalone="no"?><!DOCTYPE svg PUBLIC "-//W3C//DTD SVG 1.1//EN" "http://www.w3.org/Graphics/SVG/1.1/DTD/svg11.dtd"><svg width="100%" height="100%" viewBox="0 0 320 64" version="1.1" xmlns="http://www.w3.org/2000/svg" xmlns:xlink="http://www.w3.org/1999/xlink" xml:space="preserve" xmlns:serif="http://www.serif.com/" style="fill-rule:evenodd;clip-rule:evenodd;stroke-linejoin:round;stroke-miterlimit:2;"><rect id="Artboard1" x="0" y="0" width="320" height="64" style="fill:none;"/><path d="M177.269,21.569c0.476,-0.188 0.966,-0.37 1.469,-0.546c0.832,-0.289 1.703,-0.563 2.611,-0.82c-0.198,-0.796 -0.372,-1.576 -0.521,-2.337c-0.925,-4.731 -0.867,-8.795 -0.03,-11.677c0.652,-2.247 1.795,-3.834 3.248,-4.675c1.502,-0.869 3.534,-1.071 5.915,-0.476c3.072,0.766 6.827,2.881 10.672,6.295c0.389,0.345 0.779,0.705 1.17,1.079c0.587,-0.566 1.173,-1.103 1.755,-1.61c3.637,-3.164 7.187,-5.143 10.102,-5.857c2.272,-0.557 4.218,-0.36 5.672,0.478c1.503,0.867 2.693,2.527 3.367,4.888c0.87,3.044 0.913,7.354 -0.125,12.39c-0.105,0.508 -0.221,1.023 -0.349,1.545c0.783,0.226 1.539,0.465 2.268,0.715c2.614,0.9 4.877,1.97 6.722,3.128l1.658,-9.388l13.673,0c4.73,0 8.347,0.984 10.85,2.952c2.504,1.969 3.755,4.679 3.755,8.132c0,2.348 -0.388,4.385 -1.165,6.111c-0.777,1.727 -1.908,3.143 -3.392,4.247c-1.485,1.105 -3.281,1.925 -5.387,2.461c-2.106,0.535 -4.506,0.802 -7.199,0.802l-3.522,0l-2.175,11.965l-11.913,-0l1.724,-9.763c-1.343,0.641 -2.825,1.236 -4.435,1.769c-0.427,0.142 -0.865,0.279 -1.311,0.41c0.16,0.64 0.301,1.27 0.423,1.887c0.972,4.908 0.853,9.121 -0.055,12.103c-0.701,2.303 -1.891,3.927 -3.362,4.777c-1.441,0.834 -3.353,1.054 -5.586,0.543c-2.874,-0.656 -6.374,-2.551 -9.992,-5.663c-0.63,-0.542 -1.265,-1.122 -1.903,-1.737c-0.492,0.475 -0.984,0.929 -1.475,1.358c-3.766,3.293 -7.475,5.294 -10.513,5.997c-2.344,0.543 -4.346,0.323 -5.817,-0.526c-1.442,-0.832 -2.587,-2.378 -3.26,-4.568c-0.867,-2.819 -0.974,-6.797 -0.085,-11.485c0.156,-0.818 0.341,-1.66 0.556,-2.524c-0.656,-0.187 -1.293,-0.387 -1.909,-0.597c-1.438,-0.492 -2.771,-1.038 -3.989,-1.625c-0.767,1.073 -1.639,2.052 -2.616,2.936c-2.003,1.813 -4.368,3.212 -7.096,4.196c-2.728,0.984 -5.697,1.476 -8.908,1.476l-16.885,-0l6.474,-36.67l15.176,0c2.071,0 4.152,0.285 6.241,0.855c2.089,0.57 3.971,1.476 5.645,2.719c1.528,1.134 2.805,2.577 3.829,4.33Zm42.193,22.982c-2.928,0.676 -6.152,1.17 -9.55,1.472c-1.918,2.775 -3.906,5.313 -5.914,7.511c0.594,0.572 1.185,1.111 1.771,1.616c3.162,2.72 6.186,4.436 8.698,5.01c1.358,0.31 2.53,0.293 3.406,-0.214c0.916,-0.53 1.552,-1.612 1.988,-3.046c0.799,-2.622 0.837,-6.326 -0.018,-10.641c-0.111,-0.56 -0.238,-1.129 -0.381,-1.708Zm-35.234,0.135c-0.199,0.802 -0.372,1.586 -0.516,2.348c-0.777,4.098 -0.753,7.575 0.004,10.038c0.409,1.332 1.009,2.339 1.885,2.844c0.917,0.529 2.173,0.539 3.633,0.201c2.67,-0.618 5.898,-2.435 9.209,-5.33c0.449,-0.392 0.898,-0.806 1.347,-1.24c-2.043,-2.194 -4.091,-4.717 -6.06,-7.486c-3.377,-0.275 -6.583,-0.731 -9.502,-1.375Zm21.804,1.595c-1.403,0.064 -2.827,0.095 -4.264,0.095c-1.391,0 -2.77,-0.026 -4.13,-0.08c1.397,1.842 2.824,3.547 4.249,5.085c1.399,-1.539 2.787,-3.252 4.145,-5.1Zm97.538,5.09l-0.829,-5.594l-11.912,-0l-3.056,5.594l-13.363,-0l22.53,-36.67l12.638,0l6.422,36.67l-12.43,-0Zm-43.506,-0l6.474,-36.67l12.068,0l-6.475,36.67l-12.067,-0Zm-196.709,-26.777c-0.587,-0.691 -1.347,-1.252 -2.279,-1.684c-0.933,-0.431 -2.02,-0.647 -3.263,-0.647c-0.967,-0 -1.839,0.207 -2.616,0.621c-0.777,0.415 -1.165,1.054 -1.165,1.917c-0,0.69 0.328,1.226 0.984,1.605c0.656,0.38 1.623,0.777 2.9,1.192c1.589,0.518 3.004,1.105 4.247,1.761c1.243,0.656 2.296,1.415 3.16,2.278c0.863,0.864 1.528,1.848 1.994,2.953c0.466,1.105 0.699,2.348 0.699,3.729c-0,2.348 -0.518,4.35 -1.554,6.008c-1.036,1.657 -2.356,3.004 -3.962,4.04c-1.606,1.035 -3.375,1.795 -5.309,2.278c-1.933,0.484 -3.815,0.726 -5.645,0.726c-1.45,-0 -2.901,-0.121 -4.351,-0.363c-1.45,-0.242 -2.84,-0.587 -4.169,-1.036c-1.329,-0.449 -2.581,-1.001 -3.755,-1.657c-1.174,-0.656 -2.193,-1.399 -3.056,-2.227l8.183,-7.562c0.415,0.483 0.915,0.915 1.502,1.295c0.587,0.38 1.2,0.699 1.839,0.958c0.639,0.259 1.286,0.466 1.942,0.621c0.656,0.156 1.261,0.233 1.813,0.233c1.209,0 2.175,-0.198 2.9,-0.595c0.726,-0.397 1.088,-0.976 1.088,-1.735c0,-0.622 -0.302,-1.174 -0.906,-1.658c-0.605,-0.483 -1.735,-0.984 -3.393,-1.502c-1.312,-0.414 -2.546,-0.897 -3.703,-1.45c-1.157,-0.552 -2.158,-1.217 -3.004,-1.994c-0.846,-0.777 -1.511,-1.709 -1.994,-2.797c-0.483,-1.087 -0.725,-2.408 -0.725,-3.962c-0,-1.899 0.388,-3.66 1.165,-5.283c0.777,-1.622 1.882,-3.029 3.315,-4.221c1.433,-1.191 3.142,-2.123 5.128,-2.797c1.985,-0.673 4.169,-1.01 6.551,-1.01c1.312,0 2.607,0.113 3.885,0.337c1.277,0.225 2.486,0.535 3.625,0.932c1.14,0.397 2.193,0.872 3.16,1.425c0.966,0.552 1.778,1.174 2.434,1.864l-7.665,7.407Zm73.338,12.275c-0.38,2.175 -1.027,4.152 -1.942,5.93c-0.915,1.778 -2.124,3.289 -3.626,4.532c-1.501,1.243 -3.306,2.21 -5.412,2.9c-2.106,0.691 -4.523,1.036 -7.251,1.036c-2.348,-0 -4.489,-0.259 -6.422,-0.777c-1.934,-0.518 -3.591,-1.269 -4.972,-2.253c-1.381,-0.984 -2.452,-2.184 -3.211,-3.6c-0.76,-1.415 -1.14,-3.021 -1.14,-4.816c0,-0.484 0.035,-1.045 0.104,-1.684c0.069,-0.638 0.138,-1.217 0.207,-1.735l3.884,-22.737l11.861,0l-3.781,21.184c-0.069,0.276 -0.104,0.569 -0.104,0.88l0,0.829c0,1.139 0.346,2.141 1.036,3.004c0.691,0.863 1.865,1.295 3.522,1.295c1.071,-0 1.942,-0.173 2.616,-0.518c0.673,-0.346 1.217,-0.795 1.631,-1.347c0.415,-0.552 0.725,-1.174 0.932,-1.864c0.208,-0.691 0.38,-1.382 0.518,-2.072l3.885,-21.391l11.653,0l-3.988,23.204Zm-66.346,13.466l6.474,-36.67l23.98,0l-1.761,9.996l-12.689,0l-0.622,3.522l12.12,0l-1.658,9.323l-12.119,-0l-0.674,3.833l14.192,-0l-1.761,9.996l-25.482,-0Zm-54.435,-0l-11.912,-0l6.474,-36.67l13.673,0c4.731,0 8.348,0.984 10.851,2.953c2.503,1.968 3.755,4.678 3.755,8.131c-0,2.348 -0.388,4.385 -1.165,6.112c-0.777,1.726 -1.908,3.142 -3.393,4.247c-1.485,1.104 -3.28,1.925 -5.386,2.46c-2.106,0.535 -4.506,0.803 -7.199,0.803l-3.522,-0l-2.176,11.964Zm192.291,-29.452c-2.087,-0.159 -4.24,-0.242 -6.435,-0.242c-2.183,-0 -4.333,0.082 -6.423,0.24c-1.179,1.727 -2.325,3.548 -3.419,5.446l-0,0.001c-1.091,1.89 -2.094,3.794 -3.002,5.683c0.907,1.884 1.913,3.787 3.011,5.684c1.1,1.9 2.255,3.73 3.445,5.468c2.079,0.134 4.218,0.2 6.388,0.2c2.195,0 4.36,-0.076 6.464,-0.226c1.16,-1.741 2.29,-3.567 3.378,-5.454c1.097,-1.903 2.113,-3.816 3.034,-5.712c-0.929,-1.877 -1.95,-3.772 -3.043,-5.66c-1.089,-1.882 -2.227,-3.7 -3.398,-5.428Zm-20.877,14.669c-0.9,2.133 -1.666,4.224 -2.287,6.23c2.036,0.444 4.218,0.791 6.502,1.046c-0.757,-1.176 -1.497,-2.385 -2.214,-3.623l0,-0c-0.704,-1.218 -1.372,-2.437 -2.001,-3.653Zm28.943,-0.106c-0.647,1.248 -1.331,2.497 -2.048,3.742c-0.705,1.222 -1.427,2.419 -2.164,3.585c2.315,-0.278 4.524,-0.653 6.58,-1.123c-0.638,-2 -1.436,-4.08 -2.368,-6.204Zm-39.302,3.69c1.045,0.489 2.184,0.947 3.406,1.365c0.562,0.192 1.143,0.374 1.742,0.546c0.884,-2.881 2.055,-5.931 3.481,-9.035c-1.409,-3.062 -2.563,-6.064 -3.437,-8.908c-0.844,0.24 -1.655,0.495 -2.429,0.765c-0.426,0.148 -0.84,0.301 -1.244,0.458c0.452,1.481 0.677,3.141 0.677,4.98c0,3.211 -0.561,6.12 -1.683,8.727c-0.162,0.376 -0.332,0.743 -0.513,1.102Zm53.677,-11.81c-1.809,-1.312 -4.233,-2.518 -7.132,-3.516c-0.673,-0.231 -1.373,-0.452 -2.094,-0.661c-0.871,2.815 -2.032,5.785 -3.435,8.808c1.456,3.068 2.669,6.078 3.571,8.932c0.404,-0.12 0.799,-0.244 1.186,-0.372c2.323,-0.769 4.356,-1.669 6.042,-2.649l1.862,-10.542Zm-63.914,3.019c-0.024,-0.838 -0.161,-1.633 -0.411,-2.385c-0.277,-0.829 -0.708,-1.545 -1.295,-2.149c-0.587,-0.604 -1.338,-1.088 -2.253,-1.45c-0.915,-0.363 -1.994,-0.544 -3.237,-0.544l-3.211,-0l-2.901,16.211l3.885,-0c1.554,-0 2.917,-0.268 4.091,-0.803c1.174,-0.535 2.158,-1.243 2.953,-2.123c0.794,-0.881 1.389,-1.882 1.786,-3.004c0.173,-0.488 0.308,-0.984 0.406,-1.487c-0.028,-0.227 -0.042,-0.451 -0.042,-0.673c0,-0.523 0.076,-1.056 0.229,-1.593Zm35.038,-4.704c3.477,0 6.299,2.823 6.299,6.3c0,3.476 -2.822,6.299 -6.299,6.299c-3.476,-0 -6.299,-2.823 -6.299,-6.299c-0,-3.477 2.823,-6.3 6.299,-6.3Zm98.901,1.542l-5.231,9.427l6.319,-0l-1.088,-9.427Zm-56.713,3.211c1.658,0 2.952,-0.276 3.885,-0.828c0.932,-0.553 1.398,-1.416 1.398,-2.59c0,-1.105 -0.38,-1.864 -1.139,-2.279c-0.76,-0.414 -1.796,-0.621 -3.108,-0.621l-1.813,-0l-1.139,6.318l1.916,0Zm-222.398,-1.035c1.657,-0 2.952,-0.277 3.884,-0.829c0.933,-0.553 1.399,-1.416 1.399,-2.59c-0,-1.105 -0.38,-1.864 -1.14,-2.279c-0.759,-0.414 -1.795,-0.621 -3.107,-0.621l-1.813,-0l-1.14,6.319l1.917,-0Zm190.506,-8.087c0.731,1.147 1.448,2.325 2.145,3.529c0.708,1.224 1.386,2.45 2.031,3.674c0.888,-2.079 1.647,-4.118 2.258,-6.078c-2.017,-0.461 -4.174,-0.839 -6.434,-1.125Zm-20.585,-0.006c-2.245,0.28 -4.39,0.65 -6.396,1.099c0.61,1.968 1.36,4.014 2.241,6.103c0.627,-1.216 1.292,-2.433 1.992,-3.646c0.702,-1.217 1.424,-2.404 2.163,-3.556Zm27.829,-1.773c0.115,-0.473 0.22,-0.94 0.315,-1.4c0.918,-4.453 0.948,-8.263 0.179,-10.955c-0.418,-1.463 -1.043,-2.567 -1.975,-3.104c-0.882,-0.509 -2.072,-0.5 -3.45,-0.162c-2.561,0.627 -5.646,2.423 -8.841,5.204c-0.538,0.468 -1.079,0.963 -1.622,1.485c2.02,2.178 4.029,4.69 5.961,7.441c3.357,0.315 6.533,0.822 9.433,1.491Zm-19.616,-8.93c-0.354,-0.338 -0.707,-0.664 -1.06,-0.977c-3.399,-3.019 -6.685,-4.947 -9.4,-5.625c-1.477,-0.369 -2.745,-0.378 -3.677,0.161c-0.882,0.51 -1.468,1.545 -1.864,2.908c-0.735,2.532 -0.719,6.101 0.094,10.258c0.139,0.708 0.3,1.433 0.484,2.174c2.896,-0.656 6.071,-1.153 9.413,-1.464c1.952,-2.754 3.98,-5.255 6.01,-7.435Zm2.112,2.151c-1.407,1.517 -2.811,3.195 -4.188,5.01c1.367,-0.064 2.753,-0.096 4.152,-0.096c1.414,-0 2.812,0.033 4.187,0.098c-1.362,-1.815 -2.753,-3.498 -4.151,-5.012Z" style="fill:#7fff00;"/></svg>